ply
format ascii 1.0
comment VCGLIB generated
element vertex 16
property float x
property float y
property float z
property float nx
property float ny
property float nz
element face 28
property list uchar int vertex_indices
end_header
-150 100 0 -1.09918 0 0 
-150 -100 102 -1.09918 0 0 
-150 100 102 0 0 0.785398 
-132 -82 102 0 0 2.35619 
150 100 102 0 0 0.0985802 
-132 82 102 0 0 2.29245 
150 100 0 0 0 -0.588003 
-150 -100 0 0 0 -0.588003 
150 -100 102 1.09918 0 0 
150 -100 0 1.5708 0 0 
132 -82 27 -0.428922 0 0 
132 82 102 -0.428922 0 0 
132 -82 102 -1.5708 0 0 
-132 82 27 0 -0.276798 0 
132 82 27 0 -1.5708 0 
-132 -82 27 0.428922 0 0 
3 2 0 1 
3 0 7 1 
3 7 9 8 
3 1 7 8 
3 5 2 1 
3 5 1 3 
3 12 1 8 
3 12 3 1 
3 4 11 12 
3 4 12 8 
3 4 2 5 
3 4 5 11 
3 4 6 0 
3 4 0 2 
3 7 0 6 
3 9 7 6 
3 8 6 4 
3 8 9 6 
3 11 14 10 
3 11 10 12 
3 5 13 11 
3 13 14 11 
3 15 13 5 
3 3 15 5 
3 12 15 3 
3 12 10 15 
3 14 13 15 
3 14 15 10 
